<svg width="256" height="256" viewBox="0 0 256 256" fill="none" xmlns="http://www.w3.org/2000/svg">
<g clip-path="url(#clip0_34_5434)">
<rect x="7" y="11" width="244" height="244" rx="122" fill="#D9D9D9"/>
<rect width="256" height="265" fill="black"/>
<path style="mix-blend-mode:screen" d="M179.302 308C283.131 308 367.302 223.83 367.302 120C367.302 16.1705 283.131 -68 179.302 -68C75.4722 -68 -8.69824 16.1705 -8.69824 120C-8.69824 223.83 75.4722 308 179.302 308Z" fill="url(#paint0_radial_34_5434)"/>
<path style="mix-blend-mode:screen" d="M75.105 295.483C155.244 295.483 220.21 230.517 220.21 150.378C220.21 70.2382 155.244 5.27246 75.105 5.27246C-5.03431 5.27246 -70 70.2382 -70 150.378C-70 230.517 -5.03431 295.483 75.105 295.483Z" fill="url(#paint1_radial_34_5434)"/>
<path style="mix-blend-mode:screen" d="M29.555 218.415C46.608 218.415 60.4322 204.59 60.4322 187.537C60.4322 170.484 46.608 156.66 29.555 156.66C12.5019 156.66 -1.32227 170.484 -1.32227 187.537C-1.32227 204.59 12.5019 218.415 29.555 218.415Z" fill="url(#paint2_radial_34_5434)"/>
<path style="mix-blend-mode:screen" d="M201.931 166.358C217.67 166.358 230.428 153.599 230.428 137.86C230.428 122.122 217.67 109.363 201.931 109.363C186.192 109.363 173.434 122.122 173.434 137.86C173.434 153.599 186.192 166.358 201.931 166.358Z" fill="url(#paint3_radial_34_5434)"/>
<path style="mix-blend-mode:screen" d="M201.931 166.358C217.67 166.358 230.428 153.599 230.428 137.86C230.428 122.122 217.67 109.363 201.931 109.363C186.192 109.363 173.434 122.122 173.434 137.86C173.434 153.599 186.192 166.358 201.931 166.358Z" fill="url(#paint4_radial_34_5434)"/>
<path style="mix-blend-mode:screen" d="M220.207 80.3468C240.932 70.252 249.55 45.2676 239.455 24.5426C229.36 3.81757 204.376 -4.79986 183.651 5.29497C162.926 15.3898 154.308 40.3741 164.403 61.0991C174.498 81.8241 199.482 90.4416 220.207 80.3468Z" fill="url(#paint5_radial_34_5434)"/>
<g style="mix-blend-mode:overlay">
<path d="M128.999 244C65.5898 244 13.999 192.409 13.999 129C13.999 65.5908 65.5898 14 128.999 14C192.408 14 243.999 65.5908 243.999 129C243.999 192.409 192.408 244 128.999 244ZM128.999 15.2044C66.2457 15.2044 15.1916 66.2586 15.1916 129.012C15.1916 191.765 66.2457 242.819 128.999 242.819C191.752 242.819 242.806 191.765 242.806 129.012C242.806 66.2586 191.752 15.2044 128.999 15.2044Z" fill="white"/>
</g>
<path d="M64 171.5L90.1205 137.089C93.7233 132.343 100.735 131.991 104.794 136.353L130.078 163.52M142.14 176.48L130.078 163.52M130.078 163.52L142.14 152.48C147.423 148.056 150.474 148.186 156.06 152.48L180.5 171" stroke="#FFBE40" stroke-width="6" stroke-linecap="round"/>
<path d="M138.878 122.623C138.924 123.707 139.857 124.537 140.939 124.456L157.478 123.222C157.994 123.183 158.473 122.938 158.806 122.541L187.388 88.4784L166.797 71.2003L138.622 104.778C138.313 105.145 138.154 105.615 138.174 106.094L138.878 122.623Z" fill="#FF5B8C"/>
<path d="M194.021 80.5738C198.792 74.8876 198.05 66.4103 192.364 61.6391C186.678 56.8678 178.201 57.6095 173.429 63.2956L166.797 71.2003L187.388 88.4784L194.021 80.5738Z" fill="#0085E6"/>
<path d="M166.797 71.2003L138.622 104.778C138.313 105.145 138.154 105.615 138.174 106.094L138.878 122.623C138.924 123.707 139.857 124.537 140.939 124.456L157.478 123.222C157.994 123.183 158.473 122.938 158.806 122.541L187.388 88.4784M166.797 71.2003L173.429 63.2956C178.201 57.6095 186.678 56.8678 192.364 61.6391V61.6391C198.05 66.4103 198.792 74.8876 194.021 80.5738L187.388 88.4784M166.797 71.2003L187.388 88.4784" stroke="#EBEBEB" stroke-width="5.76" stroke-linejoin="round"/>
<path d="M120 86L83 86C71.9543 86 63 94.9543 63 106L63 179C63 190.046 71.9543 199 83 199H161C172.046 199 181 190.046 181 179V132.814" stroke="#EBEBEB" stroke-width="6" stroke-linecap="round"/>
</g>
<defs>
<radialGradient id="paint0_radial_34_5434" cx="0" cy="0" r="1" gradientUnits="userSpaceOnUse" gradientTransform="translate(179.302 120) scale(188)">
<stop offset="0.1" stop-color="#CE4140"/>
<stop offset="0.19" stop-color="#A13232"/>
<stop offset="0.28" stop-color="#762524"/>
<stop offset="0.38" stop-color="#521919"/>
<stop offset="0.48" stop-color="#341010"/>
<stop offset="0.58" stop-color="#1D0909"/>
<stop offset="0.7" stop-color="#0C0403"/>
<stop offset="0.83" stop-color="#030000"/>
<stop offset="0.99"/>
</radialGradient>
<radialGradient id="paint1_radial_34_5434" cx="0" cy="0" r="1" gradientUnits="userSpaceOnUse" gradientTransform="translate(75.105 150.378) scale(145.105 145.105)">
<stop offset="0.1" stop-color="#6300EB"/>
<stop offset="0.14" stop-color="#5900D3"/>
<stop offset="0.22" stop-color="#4400A2"/>
<stop offset="0.31" stop-color="#320076"/>
<stop offset="0.41" stop-color="#220052"/>
<stop offset="0.5" stop-color="#150034"/>
<stop offset="0.61" stop-color="#0C001D"/>
<stop offset="0.71" stop-color="#05000C"/>
<stop offset="0.84" stop-color="#010003"/>
<stop offset="0.99"/>
</radialGradient>
<radialGradient id="paint2_radial_34_5434" cx="0" cy="0" r="1" gradientUnits="userSpaceOnUse" gradientTransform="translate(29.555 187.537) scale(30.8772)">
<stop offset="0.1" stop-color="#6300EB"/>
<stop offset="0.14" stop-color="#5900D3"/>
<stop offset="0.22" stop-color="#4400A2"/>
<stop offset="0.31" stop-color="#320076"/>
<stop offset="0.41" stop-color="#220052"/>
<stop offset="0.5" stop-color="#150034"/>
<stop offset="0.61" stop-color="#0C001D"/>
<stop offset="0.71" stop-color="#05000C"/>
<stop offset="0.84" stop-color="#010003"/>
<stop offset="0.99"/>
</radialGradient>
<radialGradient id="paint3_radial_34_5434" cx="0" cy="0" r="1" gradientUnits="userSpaceOnUse" gradientTransform="translate(201.931 137.86) scale(28.4974 28.4975)">
<stop offset="0.1" stop-color="#CE4140"/>
<stop offset="0.19" stop-color="#A13232"/>
<stop offset="0.28" stop-color="#762524"/>
<stop offset="0.38" stop-color="#521919"/>
<stop offset="0.48" stop-color="#341010"/>
<stop offset="0.58" stop-color="#1D0909"/>
<stop offset="0.7" stop-color="#0C0403"/>
<stop offset="0.83" stop-color="#030000"/>
<stop offset="0.99"/>
</radialGradient>
<radialGradient id="paint4_radial_34_5434" cx="0" cy="0" r="1" gradientUnits="userSpaceOnUse" gradientTransform="translate(201.931 137.86) scale(28.4974 28.4975)">
<stop offset="0.1" stop-color="#CE4140"/>
<stop offset="0.19" stop-color="#A13232"/>
<stop offset="0.28" stop-color="#762524"/>
<stop offset="0.38" stop-color="#521919"/>
<stop offset="0.48" stop-color="#341010"/>
<stop offset="0.58" stop-color="#1D0909"/>
<stop offset="0.7" stop-color="#0C0403"/>
<stop offset="0.83" stop-color="#030000"/>
<stop offset="0.99"/>
</radialGradient>
<radialGradient id="paint5_radial_34_5434" cx="0" cy="0" r="1" gradientUnits="userSpaceOnUse" gradientTransform="translate(201.909 42.8644) scale(41.7407 41.7407)">
<stop offset="0.1" stop-color="#CE4140"/>
<stop offset="0.19" stop-color="#A13232"/>
<stop offset="0.28" stop-color="#762524"/>
<stop offset="0.38" stop-color="#521919"/>
<stop offset="0.48" stop-color="#341010"/>
<stop offset="0.58" stop-color="#1D0909"/>
<stop offset="0.7" stop-color="#0C0403"/>
<stop offset="0.83" stop-color="#030000"/>
<stop offset="0.99"/>
</radialGradient>
<clipPath id="clip0_34_5434">
<rect width="256" height="256" rx="128" fill="white"/>
</clipPath>
</defs>
</svg>
