<svg width="512" height="512" viewBox="0 0 512 512" fill="none" xmlns="http://www.w3.org/2000/svg">
<rect width="512" height="512" rx="60" fill="url(#paint0_linear_10_1488)"/>
<circle opacity="0.35" cx="256" cy="256" r="210" fill="url(#paint1_radial_10_1488)"/>
<path fill-rule="evenodd" clip-rule="evenodd" d="M181.844 170.25C165.776 170.25 152.75 183.276 152.75 199.344V337.156C152.75 353.224 165.776 366.25 181.844 366.25H319.656C335.724 366.25 348.75 353.224 348.75 337.156V264.829C348.75 258.063 354.235 252.579 361 252.579C367.766 252.579 373.25 258.063 373.25 264.829V337.156C373.25 366.755 349.255 390.75 319.656 390.75H181.844C152.245 390.75 128.25 366.755 128.25 337.156V199.344C128.25 169.745 152.245 145.75 181.844 145.75H231.596C238.362 145.75 243.846 151.235 243.846 158C243.846 164.765 238.362 170.25 231.596 170.25H181.844Z" fill="white"/>
<path fill-rule="evenodd" clip-rule="evenodd" d="M203.864 284.39L149.121 338.622C144.315 343.383 136.559 343.347 131.797 338.541C127.036 333.735 127.072 325.978 131.879 321.217L186.712 266.895C186.768 266.839 186.824 266.785 186.881 266.731C194.935 259.053 204.928 254.25 215.896 254.25C226.864 254.25 236.857 259.053 244.911 266.731C244.968 266.785 245.024 266.839 245.08 266.895L313.621 334.797C318.428 339.559 318.464 347.315 313.703 352.121C308.941 356.928 301.185 356.964 296.379 352.203L227.927 284.389C223.507 280.205 219.346 278.75 215.896 278.75C212.446 278.75 208.285 280.205 203.864 284.39Z" fill="white"/>
<path fill-rule="evenodd" clip-rule="evenodd" d="M299.28 312.31L285.373 325.333C280.435 329.957 272.682 329.702 268.058 324.764C263.434 319.825 263.689 312.073 268.627 307.449L282.627 294.34C282.684 294.286 282.742 294.233 282.8 294.181C291.038 286.758 301.105 282.25 312 282.25C322.896 282.25 332.962 286.758 341.2 294.181C341.258 294.233 341.316 294.286 341.373 294.34L369.373 320.558C374.311 325.182 374.566 332.934 369.942 337.873C365.318 342.811 357.566 343.066 352.627 338.442L324.72 312.31C320.217 308.281 315.827 306.75 312 306.75C308.173 306.75 303.783 308.281 299.28 312.31Z" fill="white"/>
<path fill-rule="evenodd" clip-rule="evenodd" d="M327.286 127.438C333.489 121.235 341.902 117.75 350.674 117.75C359.446 117.75 367.859 121.235 374.062 127.438C380.265 133.641 383.75 142.054 383.75 150.826C383.75 159.598 380.265 168.011 374.062 174.214L301.114 247.162C298.817 249.459 295.701 250.75 292.452 250.75H263C256.235 250.75 250.75 245.265 250.75 238.5V209.048C250.75 205.799 252.041 202.683 254.338 200.386L327.286 127.438ZM350.674 142.25C348.4 142.25 346.218 143.154 344.61 144.762L275.25 214.122V226.25H287.378L356.738 156.89C358.346 155.282 359.25 153.1 359.25 150.826C359.25 148.551 358.346 146.37 356.738 144.762C355.13 143.154 352.949 142.25 350.674 142.25Z" fill="white"/>
<path fill-rule="evenodd" clip-rule="evenodd" d="M310.338 145.838C315.122 141.054 322.878 141.054 327.662 145.838L355.662 173.838C360.446 178.622 360.446 186.378 355.662 191.162C350.878 195.946 343.122 195.946 338.338 191.162L310.338 163.162C305.554 158.378 305.554 150.622 310.338 145.838Z" fill="white"/>
<defs>
<linearGradient id="paint0_linear_10_1488" x1="0" y1="0" x2="512" y2="512" gradientUnits="userSpaceOnUse">
<stop stop-color="#9C4DF9"/>
<stop offset="1" stop-color="#00B3F9"/>
</linearGradient>
<radialGradient id="paint1_radial_10_1488" cx="0" cy="0" r="1" gradientUnits="userSpaceOnUse" gradientTransform="translate(256 256) rotate(90) scale(210)">
<stop stop-color="white"/>
<stop offset="1" stop-color="white" stop-opacity="0"/>
</radialGradient>
</defs>
</svg>
